<?xml version="1.0" encoding="iso-8859-1"?>
<!DOCTYPE svg PUBLIC "-//W3C//DTD SVG 1.1 Basic//EN" "http://www.w3.org/Graphics/SVG/1.1/DTD/svg11-basic.dtd">
<svg version="1.1" baseProfile="basic"
   xmlns="http://www.w3.org/2000/svg" xmlns:xlink="http://www.w3.org/1999/xlink" x="0px" y="0px" width="512px" height="512px"
   viewBox="0 0 512 512" xml:space="preserve">
  <path transform="matrix(0.512,0,0,0.512,0,0)" stroke="none" style="fill:#ffffff" d="M 730 500 C 730 627 627 730 500 730 C 372 730 269 627 269 500 C 269 372 372 269 500 269 C 627 269 730 372 730 500 M 530 125 C 530 142 517 156 499 156 L 499 156 C 482 156 469 142 469 125 L 469 30 C 469 13 482 0 500 0 L 500 0 C 517 0 530 13 530 30 L 530 125 z M 530 969 C 530 986 517 1000 500 1000 L 500 1000 C 482 1000 469 986 469 969 L 469 874 C 469 857 482 843 500 843 L 500 843 C 517 843 530 857 530 874 L 530 969 z M 125 469 C 142 469 156 482 156 500 L 156 500 C 156 517 142 530 125 530 L 30 530 C 13 530 0 517 0 500 L 0 500 C 0 482 13 469 30 469 L 125 469 z M 969 469 C 986 469 1000 482 1000 500 L 1000 500 C 1000 517 986 530 969 530 L 874 530 C 857 530 843 517 843 500 L 843 500 C 843 482 857 469 874 469 L 969 469 z M 786 257 C 774 269 755 269 743 257 L 743 257 C 730 244 730 225 743 213 L 809 146 C 821 134 841 134 853 146 L 853 146 C 865 158 865 178 853 190 L 786 257 z M 190 853 C 178 865 158 865 146 853 L 146 853 C 134 841 134 821 146 809 L 213 743 C 225 730 244 730 257 743 L 257 743 C 269 755 269 774 257 786 L 190 853 z M 257 213 C 269 225 269 244 257 257 L 257 257 C 244 269 225 269 213 257 L 146 190 C 134 178 134 158 146 146 L 146 146 C 158 134 178 134 190 146 L 257 213 z M 853 809 C 865 821 865 841 853 853 L 853 853 C 841 865 821 865 809 853 L 743 786 C 730 774 730 755 743 743 L 743 743 C 755 730 774 730 786 743 L 853 809 z"/>
</svg>