<?xml version="1.0" encoding="iso-8859-1"?>
<!DOCTYPE svg PUBLIC "-//W3C//DTD SVG 1.1 Basic//EN" "http://www.w3.org/Graphics/SVG/1.1/DTD/svg11-basic.dtd">
<svg version="1.1" baseProfile="basic"
   xmlns="http://www.w3.org/2000/svg" xmlns:xlink="http://www.w3.org/1999/xlink" x="0px" y="0px" width="512px" height="512px"
   viewBox="0 0 512 512" xml:space="preserve">
  <path transform="matrix(0.512,0,0,0.512,0,69)" stroke="none" style="fill:#ffffff" d="M 880 487 L 795 487 C 786 385 700 304 595 304 C 511 304 440 356 409 429 L 315 429 C 233 429 166 496 166 578 C 166 660 233 727 315 727 L 822 727 L 880 727 C 946 727 1000 673 1000 607 C 1000 541 946 487 880 487 z M 397 124 C 411 124 422 113 422 99 L 422 24 C 422 11 411 0 397 0 C 384 0 373 11 373 24 L 373 99 C 373 113 384 124 397 124 z M 315 398 L 390 398 C 421 339 475 297 539 281 C 505 240 454 214 397 214 C 296 214 214 296 214 398 C 214 408 215 418 216 428 C 245 409 279 398 315 398 z M 625 204 L 679 151 C 688 141 688 126 679 116 C 669 107 653 107 644 116 L 591 170 C 581 179 581 195 591 204 C 600 214 616 214 625 204 z M 169 204 C 179 214 194 214 204 204 C 214 195 214 179 204 170 L 151 116 C 141 107 126 107 116 116 C 106 126 106 141 116 151 L 169 204 z M 99 373 L 24 373 C 11 373 0 384 0 398 C 0 412 11 423 24 423 L 99 423 C 113 423 124 412 124 398 C 124 384 113 373 99 373 z"/>
</svg>