<?xml version="1.0" encoding="iso-8859-1"?>
<!DOCTYPE svg PUBLIC "-//W3C//DTD SVG 1.1 Basic//EN" "http://www.w3.org/Graphics/SVG/1.1/DTD/svg11-basic.dtd">
<svg version="1.1" baseProfile="basic"
   xmlns="http://www.w3.org/2000/svg" xmlns:xlink="http://www.w3.org/1999/xlink" x="0px" y="0px" width="512px" height="512px"
   viewBox="0 0 512 512" xml:space="preserve">
  <path transform="matrix(0.512,0,0,0.512,0,18)" stroke="none" style="fill:#ffffff" d="M 688 629 L 644 606 L 658 579 C 663 571 659 560 650 555 C 642 551 631 554 626 563 L 612 589 L 558 561 L 558 468 L 612 440 L 626 466 C 629 472 636 476 642 476 C 645 476 648 475 650 474 C 659 469 663 459 658 450 L 644 423 L 688 400 C 696 395 700 384 695 376 C 690 367 679 364 671 368 L 628 391 L 613 363 C 609 354 598 351 589 356 C 580 360 576 371 581 380 L 596 408 L 538 438 L 483 383 L 444 383 L 444 315 L 475 315 C 485 315 493 307 493 297 C 493 287 485 279 475 279 L 444 279 L 444 231 C 444 221 436 213 426 213 C 416 213 408 221 408 231 L 408 279 L 377 279 C 367 279 359 287 359 297 C 359 307 367 315 377 315 L 408 315 L 408 383 L 368 383 L 313 438 L 256 408 L 270 380 C 275 371 271 360 263 356 C 254 351 243 354 238 363 L 224 391 L 181 368 C 172 364 161 367 156 376 C 152 384 155 395 164 400 L 207 423 L 193 450 C 189 459 192 469 201 474 C 204 475 206 476 209 476 C 216 476 222 472 225 466 L 239 440 L 293 468 L 293 561 L 239 589 L 225 563 C 221 554 210 551 201 555 C 192 560 189 571 193 579 L 207 606 L 164 629 C 155 634 152 645 156 653 C 159 660 166 663 172 663 C 175 663 178 662 181 661 L 224 638 L 238 666 C 241 672 248 676 254 676 C 257 676 260 675 262 674 C 271 669 275 658 270 649 L 256 621 L 313 591 L 368 646 L 408 646 L 408 714 L 377 714 C 367 714 359 722 359 732 C 359 742 367 750 377 750 L 408 750 L 408 798 C 408 808 416 816 426 816 C 436 816 444 808 444 798 L 444 750 L 475 750 C 485 750 493 742 493 732 C 493 722 485 714 475 714 L 444 714 L 444 646 L 483 646 L 538 591 L 596 621 L 581 649 C 576 658 580 669 589 674 C 591 675 594 676 597 676 C 604 676 610 672 613 666 L 628 638 L 671 661 C 673 662 676 663 679 663 C 686 663 692 660 695 653 C 700 645 696 634 688 629 z M 522 557 L 468 610 L 383 610 L 329 557 L 329 472 L 383 419 L 468 419 L 522 472 L 522 557 z M 856 217 L 754 217 C 743 95 640 0 514 0 C 414 0 327 61 291 148 L 178 148 C 79 148 0 227 0 325 C 0 423 79 503 178 503 L 180 503 C 169 496 161 486 158 474 C 154 462 154 450 159 438 L 147 432 C 134 425 125 414 120 400 C 116 386 118 372 124 359 C 134 341 152 330 172 330 C 181 330 190 332 198 336 L 209 342 C 219 327 236 318 254 318 C 263 318 271 320 279 324 C 292 330 301 341 306 355 C 310 368 309 381 304 393 L 306 394 L 343 358 C 347 353 353 350 359 348 C 338 341 322 321 322 297 C 322 269 344 246 371 244 L 371 231 C 371 201 396 177 426 177 C 456 177 480 201 480 231 L 480 244 C 507 246 529 269 529 297 C 529 321 514 341 493 348 C 499 350 504 353 509 358 L 545 394 L 547 393 C 542 381 541 368 545 355 C 550 341 559 330 572 324 C 580 320 588 318 597 318 C 616 318 633 327 643 342 L 654 336 C 661 332 670 330 679 330 C 699 330 718 341 727 359 C 734 372 735 386 731 400 C 727 414 717 425 705 432 L 692 438 C 697 450 698 462 694 474 C 690 486 682 496 672 503 L 856 503 C 935 503 999 439 999 360 C 1000 281 935 217 856 217 z M 943 835 L 891 812 L 943 789 C 952 785 956 775 952 765 C 948 756 937 752 928 756 L 865 784 L 865 715 C 865 705 857 697 846 697 C 836 697 828 705 828 715 L 828 784 L 765 756 C 756 752 745 756 741 765 C 737 775 741 785 750 789 L 801 812 L 750 835 C 741 839 737 850 741 859 C 744 865 751 870 758 870 C 760 870 763 869 765 868 L 828 840 L 828 909 C 828 919 836 927 846 927 C 857 927 865 919 865 909 L 865 840 L 928 868 C 930 869 933 870 935 870 C 942 870 949 865 952 859 C 956 850 952 839 943 835 z"/>
</svg>