<?xml version="1.0" encoding="iso-8859-1"?>
<!DOCTYPE svg PUBLIC "-//W3C//DTD SVG 1.1 Basic//EN" "http://www.w3.org/Graphics/SVG/1.1/DTD/svg11-basic.dtd">
<svg version="1.1" baseProfile="basic"
   xmlns="http://www.w3.org/2000/svg" xmlns:xlink="http://www.w3.org/1999/xlink" x="0px" y="0px" width="512px" height="512px"
   viewBox="0 0 512 512" xml:space="preserve">
  <path transform="matrix(0.512,0,0,0.512,0,25)" stroke="none" style="fill:#ffffff" d="M 814 224 L 872 338 L 1000 356 L 907 444 L 929 569 L 814 510 L 700 569 L 722 444 L 629 356 L 757 338 z M 426 0 L 468 83 L 562 96 L 494 161 L 510 252 L 426 209 L 342 252 L 358 161 L 291 96 L 384 83 z M 548 656 C 383 656 248 524 248 361 C 248 346 250 330 252 315 C 109 337 0 459 0 605 C 0 768 134 900 300 900 C 449 900 573 792 596 652 C 580 654 565 656 548 656 z"/>
</svg>