<?xml version="1.0" encoding="iso-8859-1"?>
<!DOCTYPE svg PUBLIC "-//W3C//DTD SVG 1.1 Basic//EN" "http://www.w3.org/Graphics/SVG/1.1/DTD/svg11-basic.dtd">
<svg version="1.1" baseProfile="basic"
   xmlns="http://www.w3.org/2000/svg" xmlns:xlink="http://www.w3.org/1999/xlink" x="0px" y="0px" width="512px" height="512px"
   viewBox="0 0 512 512" xml:space="preserve">
  <path transform="matrix(0.512,0,0,0.512,0,60)" stroke="none" style="fill:#ffffff" d="M 571 226 L 375 438 L 469 438 L 378 629 L 608 382 L 502 382 z M 856 215 L 754 215 C 743 94 640 0 514 0 C 414 0 327 60 291 146 L 178 146 C 79 146 0 225 0 322 C 0 419 79 498 178 498 L 206 498 L 400 498 L 411 474 L 375 474 C 361 474 348 466 342 453 C 336 440 338 424 348 414 L 544 202 C 544 202 545 202 545 201 C 547 199 550 197 552 195 C 557 192 563 190 570 190 C 570 190 571 190 571 190 C 572 190 572 190 572 190 C 592 190 608 206 608 226 C 608 232 607 237 604 242 L 558 346 L 608 346 C 623 346 636 355 642 368 C 648 381 645 396 635 407 L 550 498 L 781 498 L 856 498 C 935 498 999 435 999 357 C 1000 279 935 215 856 215 z M 248 599 C 248 599 179 630 179 691 C 179 764 248 763 248 763 C 248 763 317 762 317 691 C 317 630 248 599 248 599 z M 751 599 C 751 599 682 630 682 691 C 682 764 751 763 751 763 C 751 763 820 762 820 691 C 820 630 751 599 751 599 z"/>
</svg>