<?xml version="1.0" encoding="iso-8859-1"?>
<!DOCTYPE svg PUBLIC "-//W3C//DTD SVG 1.1 Basic//EN" "http://www.w3.org/Graphics/SVG/1.1/DTD/svg11-basic.dtd">
<svg version="1.1" baseProfile="basic"
   xmlns="http://www.w3.org/2000/svg" xmlns:xlink="http://www.w3.org/1999/xlink" x="0px" y="0px" width="512px" height="512px"
   viewBox="0 0 512 512" xml:space="preserve">
  <path transform="matrix(0.512,0,0,0.512,0,134)" stroke="none" style="fill:#ffffff" d="M 534 66 L 323 66 C 305 66 290 51 290 33 C 290 14 305 0 323 0 L 534 0 C 552 0 567 14 567 33 C 567 51 552 66 534 66 z M 695 168 C 695 150 680 135 662 135 L 152 135 C 134 135 119 150 119 168 C 119 187 134 202 152 202 L 662 202 C 680 202 695 187 695 168 z M 1000 304 C 1000 285 984 270 966 270 L 33 270 C 15 270 0 285 0 304 C 0 322 15 337 33 337 L 966 337 C 984 337 1000 322 1000 304 z M 865 439 C 865 420 850 405 831 405 L 314 405 C 296 405 281 420 281 439 C 281 457 296 472 314 472 L 831 472 C 850 472 865 457 865 439 z"/>
</svg>