<?xml version="1.0" encoding="iso-8859-1"?>
<!DOCTYPE svg PUBLIC "-//W3C//DTD SVG 1.1 Basic//EN" "http://www.w3.org/Graphics/SVG/1.1/DTD/svg11-basic.dtd">
<svg version="1.1" baseProfile="basic"
   xmlns="http://www.w3.org/2000/svg" xmlns:xlink="http://www.w3.org/1999/xlink" x="0px" y="0px" width="512px" height="512px"
   viewBox="0 0 512 512" xml:space="preserve">
  <path transform="matrix(0.5150905432595574,0,0,0.5150905432595574,1,0)" stroke="none" style="fill:#ffffff" d="M 327 860 L 327 860 L 327 860 C 327 860 327 860 327 860 L 327 860 C 326 860 283 867 264 916 C 246 966 283 980 283 980 C 283 980 319 993 338 943 C 356 894 328 861 327 860 z M 451 811 L 451 811 L 451 811 C 451 811 451 811 451 811 L 451 811 C 450 811 406 818 388 867 C 370 917 406 931 407 931 C 407 931 443 944 461 894 C 480 845 451 812 451 811 z M 512 651 L 512 651 L 512 651 C 512 651 512 651 512 651 L 512 651 C 511 651 468 657 450 707 C 431 756 468 770 468 770 C 468 771 504 784 523 734 C 541 685 513 651 512 651 z M 384 706 L 384 706 L 384 706 C 384 706 384 706 384 706 L 384 706 C 383 706 340 713 321 762 C 303 812 340 826 340 826 C 340 826 376 839 395 789 C 413 740 384 706 384 706 z M 261 739 L 261 739 L 261 739 C 261 739 261 739 261 739 L 261 739 C 260 739 217 746 199 795 C 180 845 217 859 217 859 C 217 859 254 872 272 822 C 290 773 262 739 261 739 z M 323 585 L 323 585 L 323 585 C 323 585 323 585 323 585 L 323 585 C 322 585 278 592 260 641 C 242 690 278 704 279 705 C 279 705 315 718 333 668 C 352 619 323 585 323 585 z M 303 742 C 300 742 296 742 292 742 C 290 737 288 734 286 731 C 287 731 288 731 290 731 C 295 731 303 730 312 727 C 309 731 306 736 303 742 z M 806 603 C 806 679 744 742 667 742 L 605 742 C 586 742 567 742 546 742 C 567 683 537 642 532 635 C 529 632 526 629 522 628 C 518 627 515 626 512 626 C 512 626 511 626 510 626 C 509 626 508 626 507 627 C 497 628 448 640 426 698 C 423 707 421 715 420 723 C 415 705 406 694 403 691 C 402 688 399 686 397 685 C 394 683 391 682 388 682 C 387 681 385 681 384 681 C 383 681 383 681 382 681 C 381 681 380 681 379 682 C 375 682 363 685 349 693 C 352 688 354 683 357 677 C 378 618 348 577 342 569 C 339 566 335 563 330 561 C 328 560 325 560 323 560 C 321 560 320 560 319 560 C 318 560 318 560 317 561 C 306 563 258 575 237 632 C 225 664 231 686 238 699 C 242 706 246 711 251 716 C 241 718 223 725 205 741 C 160 740 143 737 143 737 C 59 717 0 642 0 555 C 0 463 68 385 157 371 C 195 255 303 175 426 175 C 582 175 709 302 709 459 C 709 462 709 466 709 470 C 766 488 806 541 806 603 z M 672 69 L 672 18 C 672 8 681 0 691 0 C 701 0 709 8 709 18 L 709 69 C 709 79 701 87 691 87 C 681 87 672 79 672 69 z M 565 184 C 595 149 640 126 690 126 C 781 126 855 200 855 291 C 855 368 804 432 733 451 C 730 334 663 234 565 184 z M 839 148 C 832 141 832 129 839 122 L 875 86 C 882 79 894 79 901 86 C 908 93 908 105 901 112 L 865 148 C 857 155 846 155 839 148 z M 988 295 C 988 305 980 313 969 313 L 918 313 C 908 313 900 305 900 295 C 900 285 908 277 918 277 L 969 277 C 980 277 988 285 988 295 z M 901 478 C 908 485 908 497 901 504 C 894 511 882 511 875 504 L 839 468 C 832 461 832 449 839 442 C 846 435 857 435 865 442 L 901 478 z M 481 112 C 474 105 474 93 481 86 C 488 79 499 79 507 86 L 543 122 C 550 129 550 141 543 148 C 536 155 524 155 517 148 L 481 112 z"/>
</svg>