<?xml version="1.0" encoding="iso-8859-1"?>
<!DOCTYPE svg PUBLIC "-//W3C//DTD SVG 1.1 Basic//EN" "http://www.w3.org/Graphics/SVG/1.1/DTD/svg11-basic.dtd">
<svg version="1.1" baseProfile="basic"
   xmlns="http://www.w3.org/2000/svg" xmlns:xlink="http://www.w3.org/1999/xlink" x="0px" y="0px" width="512px" height="512px"
   viewBox="0 0 512 512" xml:space="preserve">
  <path transform="matrix(0.512,0,0,0.512,0,11)" stroke="none" style="fill:#ffffff" d="M 870 294 C 791 294 727 230 727 151 C 727 76 785 15 858 9 C 839 3 818 0 797 0 C 695 0 611 74 596 172 C 666 222 713 301 722 391 C 745 400 770 405 797 405 C 906 405 995 319 1000 211 C 977 260 927 294 870 294 z M 313 825 L 313 825 L 313 825 C 313 825 313 825 313 825 L 313 825 C 312 825 269 831 252 880 C 234 928 269 942 270 942 C 270 942 305 955 323 906 C 341 858 313 825 313 825 z M 433 777 L 433 777 L 433 777 C 433 777 433 777 433 777 L 433 777 C 432 777 390 784 372 832 C 354 880 390 894 390 894 C 391 894 426 907 444 859 C 462 810 434 778 433 777 z M 493 620 L 493 620 L 493 620 C 493 620 493 620 493 620 L 493 620 C 492 620 450 627 432 675 C 414 724 450 737 450 737 C 450 738 486 750 504 702 C 521 654 494 621 493 620 z M 368 674 L 368 674 L 368 674 C 368 674 368 674 368 674 L 368 674 C 367 674 325 681 307 729 C 289 778 325 791 325 791 C 325 791 361 804 379 756 C 396 708 369 675 368 674 z M 248 706 L 248 706 L 248 706 C 248 706 248 706 248 706 L 248 706 C 248 707 205 713 187 761 C 169 810 205 823 205 824 C 206 824 241 836 259 788 C 277 740 249 707 248 706 z M 308 556 L 308 556 L 308 556 C 308 556 308 556 308 556 L 308 556 C 307 556 265 562 247 611 C 229 659 265 673 265 673 C 266 673 301 686 319 637 C 337 589 309 556 308 556 z M 786 563 C 786 638 725 699 651 699 L 590 699 C 590 699 566 699 530 699 C 544 648 518 612 512 605 C 511 603 509 601 506 600 C 502 597 498 596 493 596 C 491 596 489 596 487 596 C 487 596 487 597 487 597 C 474 599 429 613 409 667 C 406 675 404 682 403 689 C 398 673 390 662 388 659 C 386 657 384 656 382 654 C 378 652 375 650 370 650 C 370 650 369 650 368 650 C 367 650 365 650 364 650 C 364 650 364 650 363 650 C 359 651 348 654 335 661 C 337 656 340 651 342 646 C 363 589 333 548 328 541 C 327 539 325 538 324 537 C 319 533 314 531 308 531 C 307 531 306 531 305 532 C 304 532 303 532 302 532 C 290 534 245 547 224 602 C 213 633 219 655 225 668 C 229 674 233 680 238 684 C 229 686 217 691 206 699 C 143 698 140 694 140 694 C 57 675 0 602 0 517 C 0 427 66 350 153 337 C 190 224 296 146 416 146 C 568 146 691 270 691 422 C 691 426 691 430 691 433 C 747 451 786 503 786 563 z"/>
</svg>